<?xml version="1.0" encoding="UTF-8"?>
<svg width="85px" height="16px" viewBox="0 0 85 16" version="1.1"
  xmlns="http://www.w3.org/2000/svg"
  xmlns:xlink="http://www.w3.org/1999/xlink">
  <!-- Generator: Sketch 63.1 (92452) - https://sketch.com -->
  <title>amazon-logo</title>
  <desc>Created with Sketch.</desc>
  <g id="Page-1" stroke="none" stroke-width="1" fill="none" fill-rule="evenodd">
    <g id="amazon-logo" fill="#FFFFFF" fill-rule="nonzero">
      <path d="M67.0074014,6.9589516 L67.0074014,5.75351977 C67.0074014,5.23226791 66.9416613,4.69695572 66.6719927,4.24954743 C66.3614043,3.7336621 65.8126758,3.42444217 65.2673013,3.40297602 C64.7239393,3.42766209 64.2704668,3.82022437 63.9961026,4.35414126 C63.7002722,4.94918302 63.6097118,5.6341143 63.6097118,6.31968956 C63.6097118,7.53719609 63.8847469,9.3618191 65.2357729,9.4148405 C65.7918804,9.39069108 66.2970059,9.02641046 66.6203398,8.50719788 C66.9295866,8.01685728 67.0074014,7.52581903 67.0074014,6.9589516 M67.8928802,10.2352232 L67.3361018,10.2352232 C67.218038,10.2352232 67.0979617,10.1319173 67.0972909,10.0178784 L67.0972909,9.09483382 C66.6800425,9.92256868 66.0548408,10.383447 65.084839,10.383447 C64.1215454,10.383447 63.5030519,9.90786437 63.0274424,9.10422526 C62.5766532,8.32940447 62.4089489,7.37684393 62.4089489,6.45315536 C62.4089489,4.56279226 63.1689849,2.47923379 65.1713745,2.47923379 C66.039412,2.47923379 66.5613079,2.86626852 67.0074014,3.51561965 L67.0074014,0.240045698 C67.0074014,0.12530911 67.1268068,0.0227008988 67.2448707,0.0227008988 L67.8915385,0.0227008988 C68.0102732,0.0227008988 68.1303495,0.12530911 68.1303495,0.240045698 L68.1303495,10.01922 C68.1303495,10.133259 68.0122856,10.2345256 67.8928802,10.2358672" id="path5626"></path>
      <path d="M75.1400574,10.382964 C73.1832833,10.382964 72.3078668,8.39868648 72.3078668,6.41440896 C72.3078668,4.32612793 73.3382421,2.51830218 75.3084325,2.51830218 L75.358717,2.51830218 L75.4130532,2.51830218 C77.3309198,2.51830218 78.2841511,4.44424543 78.2841511,6.42846929 C78.2841511,8.53215229 77.2282847,10.382964 75.2453488,10.382964 L75.1943667,10.382964 L75.1400305,10.382964 L75.1400574,10.382964 Z M75.2849539,9.41967038 C75.9296093,9.39820423 76.4367472,9.00242203 76.7372733,8.33895691 C77.0082835,7.74729607 77.0592656,7.06510172 77.0592656,6.41440896 C77.0592656,5.70334264 76.9821216,4.96276036 76.6473838,4.3549999 C76.3475285,3.8243566 75.8303283,3.48696234 75.2829414,3.46748181 C74.6731685,3.48894796 74.1298065,3.90018579 73.8547714,4.5334373 C73.6099231,5.0808242 73.5327792,5.8066485 73.5327792,6.41440896 C73.5327792,7.09595932 73.6226687,7.88011789 73.9057536,8.47312036 C74.1807886,9.03392361 74.7120759,9.40018985 75.2849539,9.41967038" id="path5630"></path>
      <path d="M83.2753913,4.4402742 C83.3216508,4.54561934 83.4383999,4.62477578 83.5524388,4.59724544 L84.1467829,4.45369054 C84.2621635,4.42578454 84.3621153,4.2967193 84.3272328,4.18606128 C83.9395004,2.94703493 82.9272371,2.49222081 81.745257,2.49621926 C80.438505,2.50161225 79.2417669,3.14962174 79.2417669,4.70929876 C79.2417669,6.04556678 80.1540785,6.58087898 81.1569503,6.80359031 L82.2235498,7.02630165 C82.7890487,7.14436549 83.4954193,7.36841846 83.4954193,8.17001828 C83.4954193,9.10782084 82.6589102,9.40099483 81.9746766,9.41709444 C81.2488523,9.40045818 80.3331867,9.05619475 80.1037672,8.19486536 C80.0769345,8.08350969 79.9447835,8.00837815 79.8300737,8.03451319 L79.2088969,8.17474084 C79.0921747,8.20157353 78.9982603,8.32833116 79.0271054,8.43968683 C79.373918,9.80080193 80.6082218,10.3723383 81.8961909,10.3830713 C83.2545959,10.3938044 84.6666663,9.75921126 84.6666663,8.05131046 C84.6666663,7.36841846 84.3963269,6.74386074 83.8824809,6.34340966 C83.4846863,6.0308088 82.9949896,5.92680529 82.5207218,5.82285545 L81.5695029,5.62966007 C80.9912584,5.52565656 80.4002684,5.34791681 80.4002684,4.53086136 C80.4002684,3.72518297 81.1475588,3.44816227 81.7318407,3.43206265 C82.3972914,3.44923558 82.9842566,3.75539658 83.2753913,4.4402742" id="path5634"></path>
      <path d="M69.6973143,0.654718109 C69.6973143,0.292476777 70.0085735,4.41934627e-07 70.3909393,4.41934627e-07 C70.773976,4.41934627e-07 71.0845644,0.292476777 71.0845644,0.654718109 C71.0845644,1.01631546 70.773976,1.30879179 70.3909393,1.30879179 C70.0085735,1.30879179 69.6973143,1.01631546 69.6973143,0.654718109 M70.7196398,10.1917006 L70.0642513,10.1917006 C69.9455167,10.1917006 69.8254404,10.0884484 69.8254404,9.97505343 L69.8281236,2.86036533 C69.8281236,2.74562874 69.9481999,2.64237655 70.0662638,2.64237655 L70.7182982,2.64237655 C70.8370328,2.64237655 70.9571091,2.74498476 70.9571091,2.85972135 L70.9571091,9.97510709 C70.9571091,10.0884484 70.8397161,10.1897686 70.7196398,10.1910566" id="path5638"></path>
      <path d="M61.1459341,10.2351695 L60.5884849,10.2351695 C60.4704211,10.2351695 60.3503448,10.1318637 60.3503448,10.0171808 L60.3503448,8.96394395 C59.9606,9.78507797 59.332715,10.3827493 58.3647257,10.3827493 C57.6113979,10.3827493 57.0445572,10.1157641 56.6320046,9.53279701 C56.1919485,8.90625367 56.1148045,8.04025539 56.1148045,7.26479061 L56.1148045,2.8715814 C56.1148045,2.75555684 56.2348808,2.65224802 56.3536154,2.65224802 L57.0016249,2.65224802 C57.1210304,2.65224802 57.2404359,2.75555684 57.2404359,2.8715814 L57.2409725,7.26479061 C57.2409725,7.69744092 57.2671076,8.26430836 57.4610006,8.65204075 C57.6461462,9.05383347 58.0694319,9.36847361 58.4685682,9.36777596 C58.8844749,9.36777596 59.4217995,9.06456655 59.7558665,8.59300883 C60.1570153,8.02549741 60.2596503,7.39895407 60.2596503,6.68252121 L60.2596503,2.86492689 C60.2607236,2.75620083 60.3790558,2.65160699 60.4977905,2.65224802 L61.1444583,2.65224802 C61.2645346,2.65224802 61.3852817,2.76092338 61.3846109,2.8715814 L61.3862209,10.0157855 C61.3862209,10.1312197 61.2648029,10.2351695 61.1460683,10.2351695" id="path5642"></path>
      <path d="M49.9487862,4.44000587 C49.9944018,4.54535101 50.111124,4.62450745 50.2265046,4.59697711 L50.8201779,4.45342221 C50.9355584,4.42605287 51.0355102,4.29580699 51.0006277,4.18643694 C50.6122245,2.94746425 49.5999612,2.49195248 48.418652,2.49595097 C47.1118999,2.50134392 45.9151619,3.14935342 45.9151619,4.70897677 C45.9151619,6.04460081 46.8281442,6.58061065 47.8303452,6.80262434 L48.8962739,7.02603332 C49.4624437,7.14409717 50.1688143,7.36815014 50.1688143,8.16974996 C50.1688143,9.10825017 49.3316343,9.4007265 48.6480715,9.41682612 C47.9222472,9.40018985 47.0059108,9.0565704 46.7764913,8.19459703 C46.7503562,8.08324136 46.6181784,8.00810982 46.5027978,8.03424487 L45.8822918,8.17441885 C45.7655696,8.20125154 45.6716552,8.32806284 45.6998295,8.4394185 C46.0466421,9.8005336 47.2809459,10.3727139 48.5695859,10.382803 C49.9286617,10.3935361 51.3393904,9.75958692 51.3393904,8.05104213 C51.3393904,7.36815014 51.0697219,6.74359242 50.555205,6.34244368 C50.1574104,6.03054048 49.6690554,5.92653697 49.1934459,5.82258712 L48.2428979,5.62939174 C47.6639825,5.52538823 47.0729925,5.34764848 47.0729925,4.53059303 C47.0729925,3.72491465 47.8209538,3.44853793 48.4052356,3.43179433 C49.0706864,3.4495039 49.6576515,3.75512826 49.9487862,4.44000587" id="path5646"></path>
      <path d="M51.66903,3.55039482 L52.5947579,3.55039482 L52.5947579,7.91741533 C52.5947579,9.41806042 53.0193852,10.382642 54.4623132,10.3819983 L54.562265,10.3819983 L55.3048597,10.3149163 C55.4188986,10.3009633 55.524217,10.201575 55.524217,10.0841551 L55.5263636,9.61866162 C55.5263636,9.49990013 55.425741,9.37180086 55.3096896,9.38253394 L54.6603385,9.44489311 C53.9150605,9.41001061 53.7144861,8.95117159 53.7144861,8.10996672 L53.7144861,3.54975084 L54.9467774,3.54975084 C55.0614872,3.54975084 55.1654639,3.43640955 55.1654639,3.31898969 L55.1660005,2.8574674 C55.1660005,2.73875958 55.061353,2.62740391 54.9466433,2.62675992 L53.7143519,2.62675992 L53.7143519,0.867179359 C53.7138153,0.752496436 53.5969589,0.634378929 53.4815783,0.649834559 L52.8349105,0.72700538 C52.7101385,0.740421725 52.5954287,0.829613591 52.5947579,0.944994164 L52.5947579,2.62675992 L51.6569553,2.62675992 C51.5415748,2.62675992 51.4436354,2.74214049 51.4436354,2.85950669 L51.4382689,3.31367682 C51.4382689,3.43174066 51.5536495,3.54916052 51.66903,3.5498045" id="path5650"></path>
      <path d="M27.5887718,12.9074373 C25.0061253,14.8112167 21.25894,15.8248485 18.0343213,15.8248485 C13.512342,15.8248485 9.44383517,14.1578407 6.36277139,11.3766322 C6.11993553,11.1592874 6.3359387,10.8608006 6.6270734,11.0311345 C9.95097303,12.9611026 14.0583873,14.1249975 18.3039898,14.1249975 C21.1690504,14.1249975 24.3185376,13.5306533 27.213785,12.3043457 C27.6518287,12.1198978 28.0180949,12.5941924 27.5887718,12.9074373" id="path5654"></path>
      <path d="M28.666641,11.6813443 C28.3332448,11.260071 26.4804475,11.4814407 25.6486341,11.582761 C25.3937235,11.6128136 25.3541453,11.3922488 25.582894,11.2332383 C27.0633877,10.1955108 29.4863798,10.4933537 29.7687938,10.8428227 C30.0512079,11.1916476 29.6936623,13.6173229 28.3064122,14.7778368 C28.0930923,14.9542886 27.8918471,14.8583349 27.9850907,14.6262321 C28.2976915,13.8474401 28.9966831,12.1046568 28.666641,11.6813443" id="path5658"></path>
      <path d="M25.7063888,3.90313738 L25.7063888,2.89492584 C25.7063888,2.74262348 25.823111,2.63797599 25.9612993,2.63797599 L30.4866327,2.63797599 C30.6308584,2.63797599 30.7475806,2.74530675 30.7475806,2.89492584 L30.7475806,3.75625523 C30.7475806,3.90313738 30.6241503,4.09166387 30.404793,4.392834 L28.0629699,7.73420171 C28.9336907,7.71327221 29.8527104,7.84421575 30.6429331,8.28894077 C30.8227122,8.38757774 30.871011,8.53649918 30.8824149,8.68273735 L30.8824149,9.75668898 C30.8824149,9.90561042 30.720748,10.0766957 30.5496895,9.9861085 C29.1590853,9.25894256 27.3096421,9.1778005 25.7694456,9.99630492 C25.6131452,10.0794863 25.4481241,9.91242592 25.4481241,9.76350449 L25.4481241,8.73919333 C25.4481241,8.57551391 25.4508074,8.29779556 25.6158284,8.04755388 L28.330626,4.15681364 L25.9673367,4.15681364 C25.823111,4.15681364 25.7063888,4.05554707 25.7063888,3.90324471" id="path5662"></path>
      <path d="M9.20354842,10.1981941 L7.82568972,10.1981941 C7.69622198,10.1922909 7.59090367,10.0935466 7.57882896,9.96877458 L7.58204888,2.9131184 C7.58204888,2.77224677 7.69810027,2.65890549 7.84568007,2.65890549 L9.1276119,2.65890549 C9.26311699,2.66480868 9.37111857,2.76688024 9.37782675,2.89503317 L9.37782675,3.81673612 L9.40465944,3.81673612 C9.73738481,2.92454913 10.3686239,2.50998405 11.2151953,2.50998405 C12.0765247,2.50998405 12.6172034,2.92454913 13.0015817,3.81673612 C13.3349779,2.92454913 14.0943431,2.50998405 14.9026779,2.50998405 C15.4815932,2.50998405 16.1121614,2.74541408 16.4972106,3.28276556 C16.9319002,3.87641202 16.8446939,4.73575579 16.8446939,5.49308167 L16.8420106,9.94462515 C16.8420106,10.0881801 16.7252884,10.1981941 16.5777086,10.1981941 L15.2025332,10.1981941 C15.0643448,10.1896076 14.9563433,10.0821695 14.9563433,9.94462515 L14.9563433,6.20618727 C14.9563433,5.90764675 14.9804927,5.16840611 14.9167382,4.88467723 C14.8120907,4.41038258 14.506198,4.27621912 14.1063909,4.27621912 C13.7729947,4.27621912 13.4248406,4.49962811 13.2839689,4.85516127 C13.1424265,5.21069443 13.1578553,5.8036969 13.1578553,6.20618727 L13.1578553,9.94462515 C13.1578553,10.0881801 13.037779,10.1981941 12.8901992,10.1981941 L11.5150238,10.1981941 C11.3768354,10.1896076 11.2688338,10.0821695 11.2688338,9.94462515 L11.2661506,6.20618727 C11.2661506,5.41864778 11.3949475,4.26081716 10.4195792,4.26081716 C9.4314653,4.26081716 9.46768943,5.38913182 9.46768943,6.20618727 L9.46768943,9.94462515 C9.46768943,10.0881801 9.35029641,10.1981941 9.20338742,10.1981941" id="path5666"></path>
      <path d="M34.6544903,3.94778698 C33.6388729,3.94778698 33.5764811,5.3290266 33.5764811,6.19099997 C33.5764811,7.05098773 33.5644122,8.89439362 34.6417447,8.89439362 C35.7076734,8.89439362 35.7586555,7.40856017 35.7586555,6.50161521 C35.7586555,5.90791508 35.7345061,5.19486314 35.5547271,4.63067897 C35.3984266,4.14168001 35.0925339,3.94778698 34.6544903,3.94778698 M34.6417716,2.51025238 C36.6837394,2.51025238 37.7885754,4.26108548 37.7885754,6.48685722 C37.7885754,8.64082468 36.5697004,10.3473839 34.6417716,10.3473839 C32.639382,10.3473839 31.5459498,8.59655074 31.5459498,6.41505294 C31.5459498,4.21611389 32.6507859,2.51025238 34.6417716,2.51025238" id="path5670"></path>
      <path d="M40.4402196,10.1981941 L39.0677274,10.1981941 C38.929539,10.1896076 38.8208666,10.0821695 38.8208666,9.94462515 L38.81872,2.88896898 C38.8301507,2.76017206 38.9441629,2.65890549 39.083022,2.65890549 L40.3589165,2.65890549 C40.4789928,2.66480868 40.5782738,2.74541408 40.6051064,2.85612577 L40.6051064,3.93614159 L40.6286119,3.93614159 C41.0163443,2.96946706 41.5536689,2.50998405 42.5055586,2.50998405 C43.1213689,2.50998405 43.7277877,2.7306561 44.112166,3.33911421 C44.4723949,3.90592798 44.4723949,4.85516127 44.4723949,5.53805326 L44.4723949,9.97752203 C44.4576369,10.1036357 44.3429272,10.1981941 44.2080929,10.1981941 L42.8268801,10.1981941 C42.7007665,10.1922909 42.5988022,10.0969275 42.5833734,9.97752203 L42.5833734,6.1464577 C42.5833734,5.37437384 42.6739338,4.24670316 41.722044,4.24670316 C41.3886479,4.24670316 41.0794011,4.47011215 40.9264548,4.81018968 C40.7339302,5.23951274 40.7070975,5.67221672 40.7070975,6.1464577 L40.7070975,9.94462515 C40.7044142,10.0881801 40.5870212,10.1981941 40.4401122,10.1981941" id="path5674"></path>
      <path d="M6.50692734,8.90641466 C6.25470004,8.56027295 5.98704395,8.2764904 5.98704395,7.63250581 L5.98704395,5.48991541 C5.98704395,4.58297045 6.05010077,3.75121068 5.38062512,3.12466734 C4.85537519,2.6195151 3.97861701,2.4410777 3.30914136,2.4410777 C1.99970602,2.4410777 0.537324348,2.93007666 0.23076085,4.5447607 C0.198561621,4.7171339 0.324004452,4.80702342 0.435360121,4.83390978 L1.77162815,4.97741101 C1.89505853,4.97097116 1.98494804,4.84931174 2.00909747,4.72319809 C2.1231364,4.16840537 2.59069605,3.90007845 3.11728761,3.90007845 C3.39903087,3.90007845 3.72035235,4.00472595 3.88872749,4.25561161 C4.08058123,4.53869651 4.05710263,4.9264289 4.05710263,5.25180211 L4.05710263,5.43023951 C3.25815924,5.51943137 2.21638001,5.58050258 1.46841874,5.90786141 C0.607089345,6.28083582 -2.94781358e-07,7.03885935 -2.94781358e-07,8.15445532 C-2.94781358e-07,9.58394012 0.900907315,10.2969921 2.06007958,10.2969921 C3.03880199,10.2969921 3.57344337,10.0669286 4.33012526,9.29752797 C4.57899847,9.658374 4.66016736,9.8341818 5.1196772,10.2131667 C5.22164143,10.2695154 5.35379243,10.2641488 5.44435277,10.1804308 L5.44703604,10.1804308 C5.72005867,9.93963427 6.22115918,9.50360304 6.50357325,9.26811934 C6.61492892,9.17822983 6.59346277,9.02930839 6.50679318,8.90389239 M4.05696846,6.82704208 C4.05696846,7.3643399 4.06839919,7.80842094 3.79870381,8.28674049 C3.57934656,8.67447288 3.23119239,8.90990291 2.84614327,8.90990291 C2.31821007,8.90990291 2.0089633,8.51014948 2.0089633,7.91376608 C2.0089633,6.74455839 3.05946317,6.52919921 4.05696846,6.52919921 L4.05696846,6.82704208 L4.05696846,6.82704208 Z" id="path5678"></path>
      <path d="M24.5499695,8.90641466 C24.2977422,8.56027295 24.030757,8.2764904 24.030757,7.63250581 L24.030757,5.48991541 C24.030757,4.58297045 24.0964971,3.75121068 23.4270214,3.12466734 C22.8984174,2.6195151 22.0216592,2.4410777 21.3521836,2.4410777 C20.0427482,2.4410777 18.5810374,2.93007666 18.2744739,4.5447607 C18.241577,4.7171339 18.3670467,4.80702342 18.4817564,4.83390978 L19.8153412,4.97741101 C19.9381007,4.97097116 20.0313443,4.84931174 20.0521397,4.72319809 C20.1695327,4.16840537 20.6344091,3.90007845 21.1603298,3.90007845 C21.4420731,3.90007845 21.7627237,4.00472595 21.9317697,4.25561161 C22.1269775,4.53869651 22.099474,4.9264289 22.099474,5.25180211 L22.099474,5.43023951 C21.3012014,5.51943137 20.2587514,5.58050258 19.5114609,5.90786141 C18.6501315,6.28083582 18.0430419,7.03885935 18.0430419,8.15445532 C18.0430419,9.58394012 18.9439495,10.2969921 20.1031218,10.2969921 C21.082515,10.2969921 21.6171564,10.0669286 22.3724966,9.29752797 C22.6227115,9.658374 22.7058928,9.8341818 23.1627194,10.2131667 C23.2646836,10.2695154 23.3975055,10.2641488 23.487395,10.1804308 L23.4900782,10.1804308 C23.766455,9.93963427 24.2648722,9.50360304 24.5472863,9.26811934 C24.6579711,9.17822983 24.6371758,9.02930839 24.5499695,8.90389239 M22.099474,6.82704208 C22.099474,7.3643399 22.1115487,7.80842094 21.8412094,8.28674049 C21.6225229,8.67447288 21.277052,8.90990291 20.8899905,8.90990291 C20.3613864,8.90990291 20.0521397,8.51014948 20.0521397,7.91376608 C20.0521397,6.74455839 21.1033103,6.52919921 22.099474,6.52919921 L22.099474,6.82704208 L22.099474,6.82704208 Z" id="path5682"></path>
    </g>
  </g>
</svg>